# xmcd
#
# Track frame offsets:
#	150
#	17389
#	34905
#	52695
#	77254
#	90252
#	111406
#	132613
#	152371
#	175341
#	192724
#	208582
#	227367
#	246534
#
# Disc length: 3481 seconds
#
# Revision: 1
# Processed by: cddbd v1.5.1PL2 Copyright (c) Steve Scherf et al.
# Submitted via: audiograbber 1.83.01
#
DISCID=aa0d970e
DTITLE=John Westbrook - Me And My Guitar
DYEAR=1900
DGENRE=Country
TTITLE0=He's a Cowboy
TTITLE1=Ride On
TTITLE2=Trick Rider
TTITLE3=Love Affairs
TTITLE4=Charlie Daniels on the Jukebox, Jack Daniels on The Bar
TTITLE5=What Came First
TTITLE6=Wild Fire
TTITLE7=Barstool Number .5
TTITLE8=Ghost Riders
TTITLE9=Dream Land
TTITLE10=Rosalita
TTITLE11=Blue Kentucky Moonlight Girl
TTITLE12=The Yodeler's Cattle Call
TTITLE13=Drinking Black Russians And Telling White Lies
EXTD=www.cowboyentertainer.com
EXTT0=
EXTT1=
EXTT2=
EXTT3=
EXTT4=
EXTT5=
EXTT6=
EXTT7=
EXTT8=
EXTT9=
EXTT10=
EXTT11=
EXTT12=
EXTT13=
PLAYORDER=
